<svg xmlns="http://www.w3.org/2000/svg" viewBox="0 0 290.04 139.52"><defs><style>.cls-1,.cls-2,.cls-3{fill:#fff;}.cls-1{stroke:#393236;stroke-miterlimit:10;stroke-width:0.31px;}.cls-2{fill-rule:evenodd;}.cls-4{fill:#010101;}</style></defs><g id="Capa_2" data-name="Capa 2"><g id="Capa_1-2" data-name="Capa 1"><line class="cls-1" x1="228.42" y1="130.24" x2="228.45" y2="130.24"/><path class="cls-2" d="M217.76,139.32c0-.4,0-.8-.08-1.2a7,7,0,0,0-.58-2.25,3.81,3.81,0,0,0-.53-.89,1.53,1.53,0,0,0-.13-.16.23.23,0,0,0-.05.19,5.76,5.76,0,0,1-.85,2.58,5,5,0,0,1-2.06,1.84l-.12,0a3.82,3.82,0,0,0,.85-2.15l-.08,0a8.55,8.55,0,0,1-2.69,1.41,13.53,13.53,0,0,1-2.75.62,19.87,19.87,0,0,1-2.31.13.14.14,0,0,1-.1,0l.15-.07a8.66,8.66,0,0,0,2.94-2,6.43,6.43,0,0,0,1.62-2.9l0-.16a1.52,1.52,0,0,1,.11.23,3.1,3.1,0,0,1,.19,1.41c0,.34-.07.68-.11,1a.67.67,0,0,0,0,.16l.18-.18a5,5,0,0,0,1.12-2.14,6.62,6.62,0,0,0,0-3.16,9.62,9.62,0,0,0-.44-1.38.6.6,0,0,1-.06-.19,5.56,5.56,0,0,1,1.6,1.71,6,6,0,0,1,.82,2.22.49.49,0,0,0,0-.1.28.28,0,0,0,0-.09c0-.5,0-1,0-1.5,0-.67-.06-1.33-.13-2a19.88,19.88,0,0,0-1.68-6.6,11,11,0,0,0-1.73-2.69l-.08-.11.29,0a13.21,13.21,0,0,1,4.28,1.69,14.06,14.06,0,0,1,5.37,6,18.05,18.05,0,0,1,1.47,4.53,25.63,25.63,0,0,1,.41,3.27c.05.86.06,1.72.05,2.58a.15.15,0,0,1,0,.12.88.88,0,0,0-.05-.15,13.21,13.21,0,0,0-1.6-3.65,7.71,7.71,0,0,0-1.56-1.81,5.93,5.93,0,0,0-.94-.63l-.19-.09c0,.09,0,.16,0,.22a15.3,15.3,0,0,1,.13,3.1,9.05,9.05,0,0,1-.61,2.9l-.1.24h0"/><path class="cls-2" d="M210.54,121.54a10.56,10.56,0,0,1-4,5.59,9.79,9.79,0,0,0,1.74-.16c.56-.09,1.12-.2,1.73-.31l-.2.15a6.36,6.36,0,0,1-2.71,1.12c-.65.11-1.31.2-2,.29a15.11,15.11,0,0,0-1.76.32l-.14,0a1.76,1.76,0,0,0-1.35,1.6,5.92,5.92,0,0,0,.08,1.62,4,4,0,0,1,.3-.29c.11-.09.22-.18.34-.26a2.53,2.53,0,0,1,.37-.18,1.63,1.63,0,0,1,.39-.13.39.39,0,0,1-.1.08,1.76,1.76,0,0,0-.48.57,4.11,4.11,0,0,0-.44,1.32,4.51,4.51,0,0,0-.07,1,3.25,3.25,0,0,1,0,.44,1.13,1.13,0,0,1-1.1,1.08h-.25a1.34,1.34,0,0,1-1-.24,3.87,3.87,0,0,1-.86-.75,1.44,1.44,0,0,1-.23-.32l.15.08a4.09,4.09,0,0,0,1.27.49,2,2,0,0,0,.35,0,.61.61,0,0,0,.48-.24.18.18,0,0,0,0-.23,1.24,1.24,0,0,0-.39-.43.4.4,0,0,1-.12-.11,1,1,0,0,0,.17,0l.39,0c.17,0,.19-.06.18-.23a3.47,3.47,0,0,0-.3-1.23,1.36,1.36,0,0,0-.1-.21,3.63,3.63,0,0,1-.46-1.53,10.31,10.31,0,0,1,0-1.47,1.28,1.28,0,0,0,0-.19.45.45,0,0,0-.56.21c-.13.28-.26.55-.37.83a3,3,0,0,0-.12.43,3.6,3.6,0,0,1-.26-.52l-.08,0a1.69,1.69,0,0,1-.69.29.29.29,0,0,0-.21.16,2.72,2.72,0,0,0-.29.71l0,.06c-.07-.14-.14-.27-.2-.41l-.18-.42-.56.08a.33.33,0,0,0-.27.26,1.88,1.88,0,0,0,0,.94c.05.29.14.58.21.87,0,.05,0,.1,0,.18l-.12-.07a2.41,2.41,0,0,1-.8-.88c-.1-.21-.19-.43-.28-.64s-.28-.65-.43-1a19.53,19.53,0,0,1-.81-1.95.11.11,0,0,1,0-.06.17.17,0,0,1,.1,0,3.78,3.78,0,0,0,1.76-.25,6.64,6.64,0,0,0,1.75-1,12.87,12.87,0,0,0,2.45-2.33l.13-.15.21.07a10.85,10.85,0,0,0,1.68.51,1,1,0,0,0,1-.35,8,8,0,0,0,.72-1c.14-.24.26-.47.41-.7a3,3,0,0,1-.1.59c0,.2-.08.4-.12.6s-.09.41-.14.61-.09.39-.14.62l.32,0a1.69,1.69,0,0,0,.86-.49,9.4,9.4,0,0,0,.7-.86,22.85,22.85,0,0,0,1.58-2.58.57.57,0,0,1,.11-.16.41.41,0,0,1,0,.11.5.5,0,0,1,0,.12,14.11,14.11,0,0,1-.71,2.2c-.3.73-.62,1.46-.93,2.19l-.08.18,0,0,.16-.08a8.55,8.55,0,0,0,1.94-1.38,15.53,15.53,0,0,0,2.35-2.77l.1-.14,0,0m-9.77,4.16c-.57.63-1.21,1.16-1.82,1.73l0,0,1.33-.2c.16-.54.31-1.05.47-1.56"/><path class="cls-2" d="M199.08,139.5a4.79,4.79,0,0,1,1.51-2.89,7.6,7.6,0,0,1,1.55-1.09c.5-.27,1-.52,1.52-.77a6.77,6.77,0,0,0,2-1.36,3,3,0,0,0,.85-1.45,1.52,1.52,0,0,0-.86-1.81,3.88,3.88,0,0,0-2-.36,1.24,1.24,0,0,0-.85.36,3,3,0,0,0-.3.4.14.14,0,0,1,0-.07,1.1,1.1,0,0,1,.37-.85,2.15,2.15,0,0,1,.64-.42,5,5,0,0,1,1.31-.34,5.35,5.35,0,0,1,2.07.13,3.51,3.51,0,0,1,2.65,2.73c.11.48.15,1,.22,1.45a2.88,2.88,0,0,1,0,.33c-.21-.23-.4-.45-.6-.66l0,0a.27.27,0,0,0,0,.09,3.87,3.87,0,0,1,0,1.44,9.59,9.59,0,0,1-.46,1.75.18.18,0,0,1,0,.08,2.93,2.93,0,0,0-.24-1.46,6.21,6.21,0,0,1-1.5,3.06,4.42,4.42,0,0,0,.27-1.07,2.18,2.18,0,0,1,0-.24.58.58,0,0,0-.14.08,8.84,8.84,0,0,0-.69.68,2,2,0,0,0-.43,1.61c0,.21.09.41.13.63Z"/><path class="cls-2" d="M290,123.3c-.18.08-.36.17-.55.24a.17.17,0,0,0-.13.18c0,.11,0,.21,0,.32,0,.44,0,.88,0,1.32,0,1.22,0,2.44,0,3.66l0,5.52c0,1.4,0,2.81,0,4.21,0,.24,0,.48-.05.77-.05-.07-.09-.1-.12-.15-.42-.71-.85-1.41-1.25-2.13l-4.08-7.17c-.43-.77-.87-1.53-1.31-2.29l-.16-.23h0c0,.26,0,.52,0,.77s0,.21,0,.32c0,.57,0,1.15,0,1.73s0,1.07.05,1.61c0,.7.06,1.4.1,2.09,0,.36.06.71.09,1.08l1.29.46c-1.74.06-3.48,0-5.23,0l.58-.28a.67.67,0,0,1,.18-.07c.24,0,.29-.22.3-.43,0-.67.09-1.33.11-2,.05-1,.07-2,.1-3.05,0-.66,0-1.33.05-2s0-1,.05-1.58v-.44l-1.38-.46a.34.34,0,0,1,.26-.06c1.06,0,2.11,0,3.16,0,.42,0,.84,0,1.28,0l.52.88c.92,1.49,1.83,3,2.75,4.47a1,1,0,0,0,.28.31l0-.41c0-1.37,0-2.74,0-4.1,0-.65,0-1.29-.05-1.93,0-.22-.06-.43-.08-.65s-.08-.18-.19-.22l-1-.37a.21.21,0,0,1-.1-.09H290Z"/><path class="cls-2" d="M239.68,133.61a2.8,2.8,0,0,0,.49,1c0-.22.07-.44.09-.66.08-.68.15-1.36.22-2a11.83,11.83,0,0,0,.08-1.88c0-.81-.11-1.62-.17-2.43,0-.36-.08-.71-.12-1.07v-.28c.38,0,.76,0,1.13,0a9.69,9.69,0,0,1,2.22.25,6.57,6.57,0,0,1,2.39,1.09,3.81,3.81,0,0,1,1.48,2.58,6.9,6.9,0,0,1,0,1c0,.35,0,.35.39.33a1.66,1.66,0,0,0,0-.22c0-.77,0-1.55-.05-2.32l-.06-2.51s0-.05,0-.08l.12,0a14.73,14.73,0,0,1,2.89.19,3.75,3.75,0,0,1,1.9.88,2.5,2.5,0,0,1,.68,2.65,2.09,2.09,0,0,1-.83,1,4,4,0,0,1-1.15.53l-.36.12a11.61,11.61,0,0,0,1.1,1.2,8.27,8.27,0,0,0,1.24,1l-.61.07a2.33,2.33,0,0,0,.87.58c0-.09.07-.17.1-.26.26-.93.54-1.85.78-2.77.4-1.48.77-3,1.15-4.45a1.29,1.29,0,0,0,.06-.21.21.21,0,0,1,.22-.18l1.46-.1,1.63-.09,1-.06.14,0-1.19.85.5,1.13c.87,2,1.75,4,2.61,5.95a.66.66,0,0,0,.31.33l1,.5h-4.08a1.57,1.57,0,0,1,.47-.3l.54-.29-.06-.2-1-2.4c-.09-.21-.09-.2-.32-.19s-.74,0-1.12.08l-1.28.12-.11,0-.76,2.77.91.36c-1.67-.1-3.33.13-5,.18-.17-.35-.32-.7-.49-1-.37-.77-.75-1.54-1.13-2.3-.05-.1-.07-.26-.23-.21s-.08.18-.08.28c0,.76,0,1.52,0,2.27a.34.34,0,0,0,.21.37,2.66,2.66,0,0,1,.51.34c-1.06.13-2.11.23-3.21.3a18.43,18.43,0,0,0,.7-3.67l-.38-.09c0,.2-.07.39-.11.58a3.18,3.18,0,0,1-1.91,2.4,8.05,8.05,0,0,1-2.71.75c-.65.06-1.3.05-2,.08-.22,0-.44,0-.66,0h-2.68l-1.17,0c-.24,0-.47,0-.71,0l-.8,0-.34,0a18.11,18.11,0,0,0,1.59,1.67,11.39,11.39,0,0,0,1.78,1.41,1.24,1.24,0,0,1-.23,0l-1.94.12c-.4,0-.8.05-1.19.09a.28.28,0,0,1-.29-.13c-1.35-1.89-2.72-3.78-4.08-5.67a14.09,14.09,0,0,1-1.19-1.93l-.07-.1-.47,0c0,.19,0,.36-.05.53,0,.33,0,.67,0,1,0,.73,0,1.46-.05,2.2a.41.41,0,0,0,.21.4,3.82,3.82,0,0,1,.61.47c-.58.1-1.16.16-1.75.22s-1.17.13-1.8.16a30.91,30.91,0,0,0,.82-5.14,7.93,7.93,0,0,1-1.47-.49l1.5.21c0-.35,0-.67,0-1s0-.44,0-.66c-.05-.85-.1-1.69-.16-2.53s-.1-1.41-.16-2.12c0-.42-.08-.85-.12-1.28,0,0,0-.08,0-.14l.17.06a18.84,18.84,0,0,0,2.34.77,13.15,13.15,0,0,1,1.85.67,4.11,4.11,0,0,1,1.81,1.48,3.33,3.33,0,0,1,.46,2.11,3,3,0,0,1-.45,1.35,3.44,3.44,0,0,1-1.66,1.27l-.39.15a1.22,1.22,0,0,0-.2.1c1.31,1.15,2.62,2.25,4,3.33a1.36,1.36,0,0,0,.06-.2c0-.5,0-1,.06-1.49,0-1.38,0-2.77,0-4.15,0-.27,0-.53,0-.8a.68.68,0,0,0-.24-.52l-.61-.52-.28-.22h.9c.29,0,.57,0,.86,0a20.37,20.37,0,0,0,2.21,0c.63,0,1.26,0,1.88,0l.66,0h.21c-.06.66-.11,1.29-.16,1.95l-.4-.32a2.24,2.24,0,0,0-1.17-.53,4.6,4.6,0,0,0-1.28.08l-.47.11a.2.2,0,0,0-.19.21c0,.15,0,.29,0,.44l-.06,2.17.14,0a19.06,19.06,0,0,0,2.27-.09.54.54,0,0,0,.42-.25,3.24,3.24,0,0,1,.46-.44c0,.76,0,1.49,0,2.24l-.19,0a4.55,4.55,0,0,0-2.82-.24l-.17,0a.16.16,0,0,0-.13.18c0,.85.07,1.7.11,2.55l0,0a.29.29,0,0,0,.1,0h2.15a3.18,3.18,0,0,0,.43-.06,1.13,1.13,0,0,0,.92-.71l0-.09,0,0m6.16-2a5.71,5.71,0,0,1-1.46.55l.19-.32a3.07,3.07,0,0,0,.44-2.27,1.51,1.51,0,0,0-1.24-1.3l-1.44-.24a.34.34,0,0,0-.14,0c.06.52.12,1,.17,1.54s.08,1,.08,1.53,0,1-.07,1.55-.13,1-.19,1.53h.28a5.16,5.16,0,0,0,1.65-.38,2.85,2.85,0,0,0,1.53-1.41,1.69,1.69,0,0,0,.2-.8m-17.45-.91.47-.12a1.92,1.92,0,0,0,1.47-1.47,4.79,4.79,0,0,0,0-2,3,3,0,0,0-.54-1.29,1.22,1.22,0,0,0-.83-.55c-.32,0-.43.07-.43.34a2,2,0,0,1,0,.35c0,.65-.06,1.31-.08,2s0,1.13,0,1.7c0,.33,0,.65,0,1m21.35.09h.08a3,3,0,0,0,1.74-.95,1.18,1.18,0,0,0-.32-1.8,2.69,2.69,0,0,0-1.07-.31.75.75,0,0,0-.48,0c0,1,0,2,.05,3m8-2.77a24.54,24.54,0,0,0-.8,3c.65,0,1.29,0,2,0-.4-1-.78-1.95-1.17-2.94"/><path class="cls-2" d="M278.32,131.52a8.43,8.43,0,0,0,.91-1.12l0,.24a6.8,6.8,0,0,1-.81,2.13c-.2.36-.41.72-.6,1.09a3,3,0,0,1-2.1,1.67,3.38,3.38,0,0,1-.63.07c-.4,0-.8,0-1.19,0a2.86,2.86,0,0,1-2.65-2c-.17-.44-.28-.91-.42-1.37,0-.05,0-.09-.05-.18-.23.32-.44.61-.69.94,0-.18-.05-.31-.06-.44a6.33,6.33,0,0,1,.25-2.29,7.78,7.78,0,0,1,1.11-2.28,3,3,0,0,1,1.91-1.25,4.06,4.06,0,0,1,3,.46,3.77,3.77,0,0,1,1.5,1.73,6.08,6.08,0,0,1,.55,2.45,1.18,1.18,0,0,0,0,.16m-6.44-.69a4.24,4.24,0,0,0,.21,1.43,2.57,2.57,0,0,0,1.17,1.53,2.66,2.66,0,0,0,1,.3,2.2,2.2,0,0,0,1.24-.19,2.33,2.33,0,0,0,1.25-1.57,3.92,3.92,0,0,0-.14-2.44,2.66,2.66,0,0,0-.81-1.17,2.54,2.54,0,0,0-2-.52,2,2,0,0,0-1.64,1.19,3,3,0,0,0-.28,1.44"/><path class="cls-2" d="M269.52,131.18a19.8,19.8,0,0,0,.51,4.07l-.13,0-1.63.05-2.52,0A4.26,4.26,0,0,1,264,135a3.45,3.45,0,0,1-1.71-1.76,5.28,5.28,0,0,1-.39-3.06,4.22,4.22,0,0,1,1.6-2.57,4.72,4.72,0,0,1,2.46-1,5.16,5.16,0,0,1,2,.14c.67.15,1.34.34,2,.51l.17.07a4.62,4.62,0,0,0-.71,2l-.31-.27A4.78,4.78,0,0,0,267,128a3.29,3.29,0,0,0-2,.14,2,2,0,0,0-1.27,2.46,2.66,2.66,0,0,0,.7,1.24l.26.27a1.37,1.37,0,0,1-.61-.15,4.53,4.53,0,0,1-.5-.29,3.6,3.6,0,0,0,.27,1,2.56,2.56,0,0,0,2.09,1.53,4,4,0,0,0,2.12-.27.33.33,0,0,0,.24-.32,7.65,7.65,0,0,0,0-1.07.3.3,0,0,0-.2-.26c-.3-.15-.61-.31-.92-.44s-.81-.3-1.21-.45a.2.2,0,0,1-.13-.08H266l2.22-.05,1.07,0h.27"/><path class="cls-2" d="M273.25,130.88a2.77,2.77,0,0,0,1.06-1.89,3.25,3.25,0,0,0,1,1.89,1.62,1.62,0,0,0-.83,1.27c-.08.38-.13.76-.2,1.17,0-.29-.05-.55-.08-.81a3.19,3.19,0,0,0-.3-.95,1.86,1.86,0,0,0-.66-.68"/><path class="cls-3" d="M79.12,19.7a.27.27,0,1,1,.27-.27A.27.27,0,0,1,79.12,19.7Zm0-.49a.22.22,0,0,0-.22.22.23.23,0,1,0,.22-.22Zm.07.37-.07-.12h0v.12h0v-.29h.1a.09.09,0,0,1,.09.09s0,.06-.06.08l.06.12Zm-.06-.26h0v.11h0a.06.06,0,1,0,0-.11Z"/><path class="cls-3" d="M47.63,17.82c-2.4-1.45-5.64-1.68-10.85-.26-5.56,1.3-7.41,2.12-9.87.52C26,17.3,25.63,16,25.86,14.19c.56-3,2.11-5.88,4.88-9.1,1.54-1.68,3-3.12,4.89-3.7,1.46-.37,1.33.73,1.15.89a1.4,1.4,0,0,0-.74.19,1.81,1.81,0,0,0-.76,1.25c0,1,1,.76,1.47.23s1.19-1.77.62-2.83A1.7,1.7,0,0,0,36.2.39,8.91,8.91,0,0,0,31.34,2,20.59,20.59,0,0,0,24,10.59c-.84,2-1.6,4.88-.41,7.19a5,5,0,0,0,5,2.26,37.68,37.68,0,0,0,4.72-1c1.27-.3,7.75-2.49,9.92,1.21a2.89,2.89,0,0,1,2.47-1.36,8.49,8.49,0,0,1,5.11,1.45A12.6,12.6,0,0,0,47.63,17.82Z"/><path class="cls-3" d="M37.35,5.41c-1.23-.75-3.66.72-5.6,3.24-1.77,2.26-2.52,4.88-1.67,6.08,1.26,1.41,3.57-.67,4.54-1.79l.13-.13a13.26,13.26,0,0,0,1.68-2.33s.45-.73.48-.76c.28-.05.62-.14,1-.25a9.06,9.06,0,0,0-1.3,3.58A2,2,0,0,0,38,15.11c1.79.28,3.21-1,4.46-2.25l.33-.31-.07.27c-.51,1.75.2,2.11.64,2.24,1.34.36,2.92-1.5,2.92-1.5,0,.58-.15,1.07.49,1.44a2,2,0,0,0,1.69-.4,18,18,0,0,0,4.09-4.47h-.69S50.13,12.52,49,13.05c0,0-.2.09-.32,0s-.09-.38,0-.55l4.24-7.18h-2s-.22.36-.24.38l-.07-.09C49.34,4,46.52,6.56,44.4,9.54a20,20,0,0,1-2.93,3.38s-1.61,1.42-2.3.41a1.85,1.85,0,0,1,0-1.46,12,12,0,0,1,3.71-5.39A1.21,1.21,0,0,1,44,6.19a.48.48,0,0,1,.13.67,1.11,1.11,0,0,0-.9.33,1.32,1.32,0,0,0-.47,1.36c.73,1,2.16-1,2.09-2.17a1.31,1.31,0,0,0-.63-1,2.28,2.28,0,0,0-1.86,0,8.25,8.25,0,0,0-2.44,1.84c-.8.87-2.19,1.83-2.63,1.73C37.43,8.58,38.59,6.27,37.35,5.41Zm9.79,3.34a28,28,0,0,1,1.8-2.17c.94-.8,1.32-.45,1.35-.21-.87,1.52-1.89,3.24-2.85,4.8l-.3.45a4.48,4.48,0,0,1-1.56,1.56.57.57,0,0,1-.38,0,.38.38,0,0,1-.17-.37A9.88,9.88,0,0,1,47.14,8.75Zm-11,1a.41.41,0,0,1,0,.07l-.87,1.38a6.75,6.75,0,0,1-2,2c-.24.08-.58.13-.76-.08-.37-.41-.18-1,0-1.47l0-.17a14.2,14.2,0,0,1,1.8-3.11h0a2.88,2.88,0,0,0,1.84,1.31v0S36.15,9.69,36.12,9.74Zm.82-1.63L36.56,9c-.06,0-.14,0-.25,0l-.17,0A1.56,1.56,0,0,1,35,8a1.78,1.78,0,0,1,.85-1.67A1,1,0,0,1,37,6.25a1,1,0,0,1,.24.7A3.56,3.56,0,0,1,36.94,8.11Z"/><polygon class="cls-3" points="56.27 5.29 54.38 5.31 53.31 7.08 55.2 7.06 56.27 5.29"/><path class="cls-3" d="M79.29,17.76c-.2.13-.49,0-.39-.29a17.12,17.12,0,0,1,1.33-2.41l3-5.13-2.06,0-.29.52a2.72,2.72,0,0,0-.51-.55,1.86,1.86,0,0,0-1.74.13c-2.2,1.25-3.79,3.7-5,5.62,0,0-1.32,2.13-2.06,2.29-.58.05-.52-.7-.5-.88a13.88,13.88,0,0,1,1.24-3.54,27.4,27.4,0,0,0,3.37-2.68A34.74,34.74,0,0,0,80.21,5.7a7.06,7.06,0,0,1-.72.07c-1.85,2.47-5.51,6-6.64,6.53a42.37,42.37,0,0,1,6.51-9.46l.43-.41A5.29,5.29,0,0,1,81.71,1c.06,0,.13,0,.2.13a2.31,2.31,0,0,1-.38,1.27l-.3.61A6.23,6.23,0,0,0,82,2.86,3.15,3.15,0,0,0,82.5.78.61.61,0,0,0,82,.29a3.78,3.78,0,0,0-2.46.93l0,0c-3.73,2.84-6.87,6.92-9.59,12.47a2.11,2.11,0,0,1-1.11.25,8.46,8.46,0,0,0,.77-2.06,5.06,5.06,0,0,0,0-.68A1.36,1.36,0,0,0,69.05,10a2.08,2.08,0,0,0-1.63.06c-2,.81-3.43,2.76-4.49,4.37a9.1,9.1,0,0,0-1.28,3.36c-.1,1,.13,1.6.71,1.91A2,2,0,0,0,64,19.52c2-1,3.38-3.07,4.48-4.94a5.61,5.61,0,0,0,1.1-.14h0l-.26.76c-.68,2-1,3.31-.33,4.09,1,1.12,2.51-.05,3.77-1.59-.26,1.83.74,2.12,1.49,2a6.06,6.06,0,0,0,2.27-1.59c-.14.54-.09,1.49.7,1.58a2.15,2.15,0,0,0,1.41-.42c1.68-.88,3.67-3.84,4.18-4.65h-.68A10.4,10.4,0,0,1,79.29,17.76Zm-15.09-.1a.91.91,0,0,1-.14-.51c0-1.1,1.19-3.06,2.06-4.17h0a3.15,3.15,0,0,0,1.7,1.47C67.21,15.77,65.1,18.64,64.2,17.66Zm4-3.8a1.72,1.72,0,0,1-1.32-1.21,1.66,1.66,0,0,1,1-1.74,1,1,0,0,1,.86-.16.82.82,0,0,1,.31.73,5.09,5.09,0,0,1,0,.56s0,0,0,0A7.55,7.55,0,0,1,68.17,13.86Zm8.41,3.35-.2.17c-.28.24-.57.5-.92.37a.32.32,0,0,1-.18-.25,4.28,4.28,0,0,1,.61-2l.08-.15A15.45,15.45,0,0,1,79.44,11a.93.93,0,0,1,.84-.22.47.47,0,0,1,.16.27.33.33,0,0,1,0,.15c-.43.67-.84,1.38-1.23,2.06A28.27,28.27,0,0,1,76.58,17.21Z"/><path class="cls-3" d="M76.67,2.5l0,0c-.94-.53-2-1.05-3-1.54a6,6,0,0,0-4.91-.4l-.69.24A2.71,2.71,0,0,0,65.45.34c-2.94.82-5.65,2.82-8.55,6.26a22.25,22.25,0,0,0-4.15,7.31c-.54,1.54-.69,3.8.66,5.13a3.36,3.36,0,0,0,3.72.46,11.47,11.47,0,0,0,5.38-6.18,4,4,0,0,0,.07-2.8,1.21,1.21,0,0,0-1.15-.63,5.23,5.23,0,0,0-4,3.25,8.61,8.61,0,0,0-.8,2.93,8.41,8.41,0,0,1,2.66-2,5.07,5.07,0,0,1,.94-2.22c.3-.44.9-1.14,1.58-1s.4,1.77-.38,3.3a10.65,10.65,0,0,1-2.36,3c-.8.65-2,1.45-3,.85A2.13,2.13,0,0,1,55.13,16c.29-2.84,1.63-5.27,3.53-8,2-2.57,4.15-5.2,7.09-6.63a2.14,2.14,0,0,1,1.65-.19,10.54,10.54,0,0,0-4.07,4.19A2.61,2.61,0,0,0,63,7.76a1,1,0,0,0,1,.43c1.62-.38,2.66-1.83,3.5-3.16a7.12,7.12,0,0,0,.92-3.13,3.52,3.52,0,0,0,0-.45c.78-.39,2.37.29,2.37.29a35.87,35.87,0,0,1,4.25,2.39A18.59,18.59,0,0,1,76.67,2.5ZM67.83,2a6.88,6.88,0,0,1-3.66,5.51c-.41.09-1.11-.09-.5-1.5A9.57,9.57,0,0,1,67.8,1.67.85.85,0,0,1,67.83,2Z"/><path class="cls-3" d="M84,2.32A7.51,7.51,0,0,1,79.7,3.51a15.28,15.28,0,0,0-1.36,1.77,8,8,0,0,0,6.23-2.23A10.2,10.2,0,0,0,87,0,12.57,12.57,0,0,1,84,2.32Z"/><polygon class="cls-4" points="0 103.75 0 56.55 18.37 35 188.09 35 195.85 25.89 283.56 25.89 287.5 30.51 287.5 90.01 283.56 94.64 58.31 94.64 50.54 103.75 0 103.75"/></g></g></svg>